<?xml version="1.0" standalone="no"?>
<!DOCTYPE svg PUBLIC "-//W3C//DTD SVG 20010904//EN"
 "http://www.w3.org/TR/2001/REC-SVG-20010904/DTD/svg10.dtd">
<svg version="1.0" xmlns="http://www.w3.org/2000/svg"
 width="128.000000pt" height="128.000000pt" viewBox="0 0 128.000000 128.000000"
 preserveAspectRatio="xMidYMid meet">
<metadata>
Created by potrace 1.13, written by Peter Selinger 2001-2015
</metadata>
<g transform="translate(0.000000,128.000000) scale(0.100000,-0.100000)"
fill="#000000" stroke="none">
<path d="M605 1244 c-14 -14 -16 -33 -12 -108 3 -50 8 -100 12 -111 5 -17 -1
-24 -34 -38 -86 -38 -110 -114 -92 -291 14 -134 21 -153 56 -162 32 -8 33 -15
38 -226 3 -176 3 -177 -20 -187 -24 -11 -39 -51 -29 -76 5 -13 30 -15 168 -13
l163 3 3 32 c3 25 -2 35 -22 49 -26 16 -26 18 -26 148 0 72 3 160 6 196 6 60
9 66 38 80 29 14 32 21 43 90 34 218 2 331 -105 365 -18 5 -21 11 -16 23 14
29 17 212 3 228 -17 21 -152 20 -174 -2z m150 -130 c33 -34 -10 -117 -63 -122
-27 -3 -35 2 -52 30 -25 42 -27 95 -2 101 42 11 101 6 117 -9z"/>
</g>
</svg>
