<?xml version="1.0" standalone="no"?>
<!DOCTYPE svg PUBLIC "-//W3C//DTD SVG 20010904//EN"
 "http://www.w3.org/TR/2001/REC-SVG-20010904/DTD/svg10.dtd">
<svg version="1.0" xmlns="http://www.w3.org/2000/svg"
 width="32.000000pt" height="32.000000pt" viewBox="0 0 32.000000 32.000000"
 preserveAspectRatio="xMidYMid meet">
<metadata>
Created by potrace 1.13, written by Peter Selinger 2001-2015
</metadata>
<g transform="translate(0.000000,32.000000) scale(0.100000,-0.100000)"
fill="#000000" stroke="none">
<path d="M110 295 c-8 -9 -10 -27 -6 -46 4 -20 0 -39 -10 -55 -15 -22 -13 -29
9 -25 4 0 6 -5 5 -11 -2 -9 12 -14 39 -16 69 -5 105 27 67 59 -11 9 -14 22 -9
47 4 20 2 39 -6 48 -15 19 -73 18 -89 -1z"/>
</g>
</svg>
